# xmcd
#
# Track frame offsets:
#	150
#	6433
#	21006
#	36883
#	52037
#	66175
#	74566
#	88679
#	100215
#	110884
#	126408
#	140840
#	161541
#	171675
#	182012
#	192615
#
# Disc length: 2688 seconds
#
# Revision: 1
# Processed by: cddbd v1.5.2PL0 Copyright (c) Steve Scherf et al.
# Submitted via: audiograbber 1.83.01
#
DISCID=fc0a7e10
DTITLE=Pat Burns - General Merchandise
DYEAR=2008
DGENRE=SouthWest
TTITLE0=Otowi
TTITLE1=Honky Tonk Tabletop
TTITLE2=Nine Pound Hammer
TTITLE3=Louise
TTITLE4=Payday
TTITLE5=219 Train
TTITLE6=Sailing Away
TTITLE7=Back In The Swing Of Things
TTITLE8=Ramblin' On My Mind
TTITLE9=Utah
TTITLE10=Indian Summer
TTITLE11=Take It Easy Baby
TTITLE12=Honky Tonk Girls
TTITLE13=Bullfrog Blues
TTITLE14=(Cuycuamungue Mama) Old New Mexico
TTITLE15=Rio Grande
EXTD=
EXTT0=
EXTT1=
EXTT2=
EXTT3=
EXTT4=
EXTT5=
EXTT6=
EXTT7=
EXTT8=
EXTT9=
EXTT10=
EXTT11=
EXTT12=
EXTT13=
EXTT14=
EXTT15=
PLAYORDER=
